<svg width="600" height="180" viewBox="0 0 600 180" fill="none" xmlns="http://www.w3.org/2000/svg">
      <defs>
        <linearGradient id="primaryGrad" x1="0%" y1="0%" x2="100%" y2="100%">
          <stop offset="0%" stopColor="#6366F1" />
          <stop offset="50%" stopColor="#818CF8" />
          <stop offset="100%" stopColor="#A78BFA" />
        </linearGradient>
        <linearGradient id="accentGrad" x1="0%" y1="0%" x2="100%" y2="0%">
          <stop offset="0%" stopColor="#F97316" />
          <stop offset="100%" stopColor="#EF4444" />
        </linearGradient>
        <filter id="glow">
          <feGaussianBlur stdDeviation="4" result="coloredBlur"/>
          <feMerge>
            <feMergeNode in="coloredBlur"/>
            <feMergeNode in="SourceGraphic"/>
          </feMerge>
        </filter>
      </defs>
      <g transform="translate(40, 30)">
        <circle cx="60" cy="60" r="58" fill="url(#primaryGrad)" opacity="0.15"/>
        <circle cx="60" cy="60" r="55" stroke="url(#primaryGrad)" strokeWidth="3" fill="none" opacity="0.4"/>
        <g filter="url(#glow)">
          <path d="M 35 30 L 80 30 L 80 38 L 45 38 L 45 54 L 75 54 L 75 62 L 45 62 L 45 82 L 82 82 L 82 90 L 35 90 Z" fill="url(#primaryGrad)" opacity="0.9"/>
          <circle cx="75" cy="40" r="20" fill="url(#accentGrad)" opacity="0.95"/>
          <path d="M 75 28 L 75 52 M 63 40 L 87 40" stroke="white" strokeWidth="5" strokeLinecap="round"/>
        </g>
        <circle cx="30" cy="25" r="3" fill="#6366F1" opacity="0.6"/>
        <circle cx="90" cy="95" r="3" fill="#A78BFA" opacity="0.6"/>
        <rect x="25" y="85" width="8" height="8" fill="#818CF8" opacity="0.5" rx="2"/>
      </g>
      <g transform="translate(180, 50)">
        <text fontFamily="system-ui, -apple-system, sans-serif" fontSize="72" fontWeight="900" letterSpacing="-3">
          <tspan x="0" y="60" fill="#FFFFFF">Edu</tspan>
          <tspan fill="#A5B4FC">Gest</tspan>
          <tspan fill="url(#accentGrad)" fontSize="60">+</tspan>
        </text>
        <path d="M 0 75 Q 100 72 200 75 T 350 75" stroke="url(#primaryGrad)" strokeWidth="4" strokeLinecap="round" opacity="0.7"/>
        <text x="0" y="105" fontFamily="system-ui" fontSize="16" fontWeight="600" fill="#94A3B8" letterSpacing="4">EDUCAÇÃO • GESTÃO • INOVAÇÃO</text>
      </g>
    </svg>